<?xml version="1.0" encoding="UTF-8" standalone="no"?>
<svg
   xmlns:dc="http://purl.org/dc/elements/1.1/"
   xmlns:cc="http://creativecommons.org/ns#"
   xmlns:rdf="http://www.w3.org/1999/02/22-rdf-syntax-ns#"
   xmlns:svg="http://www.w3.org/2000/svg"
   xmlns="http://www.w3.org/2000/svg"
   version="1.1"
   id="svg2"
   x="0px"
   y="0px"
   height="13"
   width="13"
   viewBox="0 0 16 16"
   style="enable-background:new 0 0 16 16;"
   xml:space="preserve"><metadata
   id="metadata3819"><rdf:RDF><cc:Work
       rdf:about=""><dc:format>image/svg+xml</dc:format><dc:type
         rdf:resource="http://purl.org/dc/dcmitype/StillImage" /><dc:title></dc:title></cc:Work></rdf:RDF></metadata><defs
   id="defs3817" />
    <style
   type="text/css"
   id="style3767">
	.st0{fill-rule:evenodd;clip-rule:evenodd;fill:#F0D6B7;}
	.st1{fill-rule:evenodd;clip-rule:evenodd;fill:#335061;}
	.st2{fill-rule:evenodd;clip-rule:evenodd;fill:#6D6B6D;}
	.st3{fill-rule:evenodd;clip-rule:evenodd;fill:#DCD9D8;}
	.st4{fill-rule:evenodd;clip-rule:evenodd;fill:#F7E4CD;}
	.st5{fill:#F7E4CD;}
	.st6{fill-rule:evenodd;clip-rule:evenodd;fill:#49728B;}
	.st7{fill:#FFFFFF;}
	.st8{fill-rule:evenodd;clip-rule:evenodd;fill:#D33833;}
	.st9{fill:none;stroke:#D33833;stroke-width:0.25;stroke-miterlimit:5;}
	.st10{fill-rule:evenodd;clip-rule:evenodd;fill:#EF3D3A;}
	.st11{fill-rule:evenodd;clip-rule:evenodd;fill:#231F20;}
	.st12{fill-rule:evenodd;clip-rule:evenodd;fill:#1D1919;}
</style>
    <g
   id="g10"
   transform="matrix(1.4908895,0,0,-1.4234875,-1.4915883,354.25539)">
	<g
   id="g3393">
		<path
   id="path28"
   class="st0"
   d="M 8.9,240.9 8,240.8 6.8,240.7 H 6 5.3 l -0.6,0.2 -0.5,0.5 -0.4,1.1 -0.1,0.2 -0.5,0.2 -0.2,0.5 -0.2,0.7 0.2,0.6 0.6,0.2 0.5,-0.2 0.2,-0.5 h 0.3 l 0.1,0.1 -0.1,0.5 v 0.6 l 0.1,0.9 v 0.5 l 0.4,0.6 0.7,0.5 1.2,0.5 1.4,-0.2 1.2,-0.9 0.5,-0.9 0.3,-0.6 0.1,-1.6 -0.3,-1.4 -0.5,-1.2 -0.5,-0.6" />
        <path
   class="st1"
   d="m 2.6,237.9 v -0.3 c 1.3,0 3.5,0 4.9,0 l -1.1,0.5 0.3,0.7 -0.5,-0.2 -0.2,0.2 -0.1,1.2 -0.2,0.1 -0.5,0.2 -0.4,0.4 -0.5,0.6 L 3.8,241 2,239.8 2.1,239.5 Z"
   id="path3770" />
        <path
   id="path32"
   class="st2"
   d="m 3,244.7 0.6,0.2 0.5,-0.2 0.2,-0.5 h 0.3 l 0.1,0.3 -0.2,0.5 0.1,1.2 -0.1,0.7 0.4,0.5 0.9,0.7 -0.2,0.3 -1.2,-0.6 -0.5,-0.4 -0.3,-0.6 -0.4,-0.6 -0.1,-0.7 -0.1,-0.8" />
        <path
   id="path34"
   class="st3"
   d="m 3.9,246.8 c 0,0 0.3,0.8 1.6,1.2 1.3,0.4 0.1,0.3 0.1,0.3 l -1.4,-0.5 -0.5,-0.5 -0.2,-0.4 0.4,-0.1" />
        <path
   id="path36"
   class="st3"
   d="m 3.3,244.9 c 0,0 -0.5,1.5 1.3,1.7 l -0.1,0.3 -1.2,-0.3 -0.3,-1.1 0.1,-0.7 0.2,0.1" />
        <path
   id="path38"
   class="st4"
   d="m 4,242.9 0.3,0.3 c 0,0 0.1,0 0.2,-0.2 0,-0.2 0.1,-1.5 1,-2.3 0.1,-0.1 -0.7,0.1 -0.7,0.1 L 4,241.9" />
        <path
   id="path40"
   class="st4"
   d="m 8,243.3 c 0,0 0.1,0.7 0.2,0.6 0.2,-0.1 0.2,-0.2 0.2,-0.2 0,0 -0.4,-0.3 -0.4,-0.4" />
        <path
   id="path42"
   class="st5"
   d="m 9.8,245.7 c 0,0 -0.4,-0.1 -0.4,-0.4 0,-0.3 0.4,-0.1 0.5,0" />
        <path
   id="path44"
   class="st5"
   d="m 7.1,245.7 c 0,0 -0.5,-0.1 -0.5,-0.4 0,-0.3 0.5,-0.3 0.7,-0.2" />
        <path
   id="path46"
   class="st4"
   d="m 4.2,244.2 c 0,0 -0.8,0.5 -0.9,0 -0.1,-0.5 -0.3,-0.8 0.1,-1.3 l -0.3,0.1 -0.3,0.7 -0.1,0.7 0.5,0.5 h 0.6 l 0.3,-0.3 0.1,-0.4" />
        <path
   id="path48"
   class="st4"
   d="m 4.6,245.6 c 0,0 0.4,1.9 2.3,2.3 1.5,0.3 2.4,-0.1 2.7,-0.4 0,0 -1.4,1.6 -2.7,1.1 -1.3,-0.5 -2.3,-1.4 -2.3,-2 0,-1 0,-1 0,-1" />
        <path
   id="path50"
   class="st4"
   d="m 9.6,247.3 c 0,0 -0.6,0 -0.7,-0.5 0,0 0,-0.1 0,-0.2 0,0 0.5,0.6 0.8,0.3" />
        <path
   id="path52"
   class="st4"
   d="m 6.9,246.5 c 0,0 -0.1,0.9 -0.9,0.4 -0.5,-0.3 -0.4,-0.8 -0.3,-0.9 0.1,-0.1 0.1,-0.3 0.1,-0.1 0.1,0.1 0,0.5 0.3,0.6 0.2,0.1 0.6,0.2 0.8,0" />
        <path
   class="st6"
   d="m 2.6,237.6 c 0.2,0 0.3,0 0.5,0 -0.2,1.1 -0.4,2.1 -0.4,2.1 l 2.1,0.9 -0.6,0.6 -2.2,-1.4 0.2,-0.7 z"
   id="path3783" />
        <path
   class="st1"
   d="m 10,237.6 c 0.1,0.4 0.3,0.8 0.3,0.9 0,0.1 0.4,1.8 0.4,1.8 l -1,1 -0.2,0.2 -0.4,-0.5 v -2 l -0.3,-1.4 c 0,0 0,0 0,0 0.4,0 0.8,0 1.2,0 z"
   id="path3785" />
        <path
   id="path66"
   class="st6"
   d="m 9.2,241.1 1.5,-1.1 v 0.5 l -1.2,1.1 -0.3,-0.5" />
        <path
   id="path80"
   class="st7"
   d="m 6,240.6 -0.6,0.1 -0.6,0.2 v -0.2 L 5.1,240.4 6,240" />
        <path
   id="path82"
   class="st3"
   d="m 5,240.5 c 0,0 0.7,-0.3 0.9,-0.2 V 240 l -0.6,0.1 -0.3,0.4 v 0" />
        <path
   id="path84"
   class="st8"
   d="m 9.4,239.4 c -0.4,0 -0.7,0.1 -1,0.1 0,0.1 0,0.2 0,0.3 0.1,0.1 0.2,0.1 0.3,0.1 -0.1,0.1 -0.3,0.1 -0.4,0 0,0.1 0,0.1 -0.1,0.2 0.2,0.1 0.7,0.6 1,0.4 0.1,-0.1 0.2,-0.5 0.2,-0.7 0.1,-0.1 0.1,-0.3 0,-0.4" />
        <path
   id="path86"
   class="st9"
   d="m 9.4,239.4 c -0.4,0 -0.7,0.1 -1,0.1 0,0.1 0,0.2 0,0.3 0.1,0.1 0.2,0.1 0.3,0.1 -0.1,0.1 -0.3,0.1 -0.4,0 0,0.1 0,0.1 -0.1,0.2 0.2,0.1 0.7,0.6 1,0.4 0.1,-0.1 0.2,-0.5 0.2,-0.7 0.1,-0.1 0.1,-0.3 0,-0.4 z" />
        <path
   id="path88"
   class="st8"
   d="m 7.7,240 c 0,0 0,0 0,0 -0.1,-0.2 -0.3,-0.2 -0.4,-0.2 0.2,0 0.3,-0.1 0.5,-0.1 0,-0.1 0,-0.1 0,-0.2 -0.2,-0.1 -0.4,-0.4 -0.7,-0.5 -0.1,-0.1 -0.5,-0.2 -0.7,-0.2 -0.1,0 -0.1,0.1 -0.1,0.2 -0.1,0.2 -0.2,0.5 -0.2,0.7 0,0.3 0,0.9 0.3,0.8 0.3,-0.1 0.6,-0.2 0.9,-0.3 0.1,-0.1 0.1,-0.1 0.4,-0.2" />
        <path
   id="path90"
   class="st9"
   d="m 7.7,240 c 0,0 0,0 0,0 -0.1,-0.2 -0.3,-0.2 -0.4,-0.2 0.2,0 0.3,-0.1 0.5,-0.1 0,-0.1 0,-0.1 0,-0.2 -0.2,-0.1 -0.4,-0.4 -0.7,-0.5 -0.1,-0.1 -0.5,-0.2 -0.7,-0.2 -0.1,0 -0.1,0.1 -0.1,0.2 -0.1,0.2 -0.2,0.5 -0.2,0.7 0,0.3 0,0.9 0.3,0.8 0.3,-0.1 0.6,-0.2 0.9,-0.3 0.1,-0.1 0.1,-0.1 0.4,-0.2 z" />
        <path
   id="path92"
   class="st8"
   d="m 7.9,239.6 c 0,0.2 -0.1,0.2 -0.1,0.4 0.5,0.4 0.6,-0.5 0.1,-0.4" />
        <path
   id="path94"
   class="st9"
   d="m 7.9,239.6 c 0,0.2 -0.1,0.2 -0.1,0.4 0.5,0.4 0.6,-0.5 0.1,-0.4 z" />
        <path
   id="path96"
   class="st10"
   d="m 8.6,239.5 c 0,0 -0.2,0.2 0,0.3 0.1,0.1 0.2,0 0.3,0.1 0.1,0.1 0,0.2 0,0.3 0,0.1 0.1,0.2 0.2,0.2 0.1,0 0.4,0.1 0.5,0 l -0.1,0.4 -0.3,0.1 -0.8,-0.5 v -0.2 -0.5" />
        <path
   id="path98"
   class="st10"
   d="m 6.3,238.8 c 0,0.3 -0.1,0.7 -0.1,1 0,0.5 0.1,0.4 0.6,0.4 0.1,0 0.4,-0.1 0.4,-0.1 0.1,-0.2 -0.2,-0.2 0.1,-0.4 0.3,-0.2 0.8,0.1 0.7,0.4 -0.1,0.1 -0.3,0 -0.4,0.1 -0.2,0.1 -0.3,0.2 -0.5,0.3 -0.2,0.1 -0.7,0.3 -1,0.1 -0.6,-0.4 0.1,-1.4 0.2,-1.8" />
        <path
   id="path100"
   class="st11"
   d="m 6.9,246.5 c -0.6,0.1 -0.9,-0.2 -1.1,-0.7 -0.2,0 -0.1,0.3 -0.1,0.4 0.1,0.3 0.5,0.7 0.9,0.6 0.2,0 0.4,-0.1 0.3,-0.3" />
        <path
   id="path102"
   class="st11"
   d="m 9.8,245.8 c 0,0 0,0 0,0 0.2,-0.3 0.3,-0.6 0.4,-0.8 -0.1,-0.3 -0.9,-0.5 -0.9,0 0.2,0.1 0.4,0 0.6,0.1 0,0.2 -0.2,0.4 -0.1,0.7" />
        <path
   id="path104"
   class="st11"
   d="m 7.2,245.8 c 0.1,-0.2 0.2,-0.5 0.4,-0.7 0.1,-0.1 0.2,-0.2 0.2,-0.4 0,-0.1 -0.2,-0.2 -0.2,-0.2 -0.3,-0.1 -0.9,0 -0.7,0.3 0.2,0 0.6,-0.2 0.7,0 -0.3,0.3 -0.5,0.8 -0.4,1" />
        <path
   id="path106"
   class="st11"
   d="M 9.7,243.4 C 9.3,243.1 8.8,242.8 8.1,242.9 8,243 7.9,243.3 8,243.5 c 0.1,-0.1 0,-0.4 0.2,-0.4 0.4,-0.1 0.9,0.2 1.1,0.4 0.2,0.3 0,0.4 -0.2,0.6 -0.3,0.4 -0.8,0.9 -0.7,1.5 0.1,0.1 0.1,-0.1 0.2,-0.2 0.2,-0.4 0.6,-0.9 0.9,-1.3 0.1,-0.1 0.2,-0.2 0.2,-0.2 0.1,-0.2 -0.1,-0.4 0,-0.5" />
        <path
   id="path108"
   class="st11"
   d="m 4,243.7 c -0.1,0.1 -0.2,0.4 -0.3,0.4 -0.2,0 -0.2,-0.4 -0.2,-0.7 -0.2,0.1 -0.2,0.6 -0.1,0.8 -0.1,0.1 -0.2,-0.1 -0.3,-0.1 0.2,0.7 1.1,0.3 0.9,-0.4" />
        <path
   id="path110"
   class="st11"
   d="m 9.9,243.2 c -0.2,-0.4 -0.5,-0.8 -1.1,-0.8 0,0.1 0,0.3 0,0.4 0.5,0 0.8,0.2 1.1,0.4" />
        <path
   id="path112"
   class="st11"
   d="m 7.1,242.9 c 0.4,-0.2 1.1,-0.2 1.6,-0.2 0,-0.1 0,-0.2 0,-0.4 -0.6,0 -1.4,0.2 -1.6,0.6" />
        <path
   id="path114"
   class="st11"
   d="M 7.1,242.6 C 7.4,242 8.2,242 9,242 c 0,-0.1 -0.1,-0.2 -0.2,-0.2 -0.2,-0.1 -0.9,-0.2 -1.2,0 -0.2,0.1 -0.3,0.4 -0.5,0.5 -0.1,0.1 -0.4,0.3 0,0.3" />
        <path
   id="path126"
   class="st0"
   d="m 8.5,240.6 c -0.2,-0.1 -0.3,-0.2 -0.4,-0.3 -0.3,0 -0.5,0 -0.8,0.2 0,0 0,0 0,0 0.4,-0.1 0.9,0.1 1.2,0.1" />
        <path
   class="st11"
   d="m 4.2,241 c 0.1,0 0.5,-0.5 0.5,-0.5 0.3,-0.2 0.7,-0.4 1.1,-0.6 0,-0.2 0.1,-0.4 0.2,-0.7 0.1,-0.3 0.2,-0.8 0.6,-0.6 0,-0.2 -0.3,-0.3 -0.2,-0.5 0,-0.1 0.5,-0.3 0.6,-0.4 0,0 0,0 0.1,0 0.3,0 0.6,0 0.8,0 -0.4,0.2 -0.9,0.4 -1.3,0.6 0.1,0.4 0.5,0.6 0.8,0.9 0.3,-0.4 0.5,-0.9 0.8,-1.5 0.1,0 0.2,0 0.3,0 -0.3,0.5 -0.5,1.2 -0.8,1.6 0,0 0.1,0.1 0.1,0.1 0.2,-0.1 0.3,0.1 0.4,0.1 0.2,0 0.3,-0.2 0.5,-0.2 0,-0.6 0,-1.1 -0.2,-1.6 0,0 0.1,0 0.1,0 0.1,0.4 0.2,1.1 0.2,1.6 0.3,0.1 0.6,0 0.7,-0.2 -0.3,-0.5 -0.5,-1 -0.9,-1.4 0.1,0 0.1,0 0.2,0 0.3,0.5 0.6,1 0.9,1.5 -0.1,0.1 -0.2,0.2 -0.2,0.3 0.2,0.4 0.1,1.8 -0.5,1.5 0.1,0.1 0.3,0.2 0.4,0.4 0.3,-0.2 0.4,-0.4 0.7,-0.6 0.1,-0.1 0.4,-0.3 0.4,-0.5 0,-0.1 -0.1,-0.4 -0.1,-0.5 -0.1,-0.5 -0.3,-1.2 -0.6,-1.8 0,-0.1 -0.1,-0.2 -0.1,-0.3 0.1,0 0.2,0 0.3,0 0.2,0.6 0.5,1.3 0.7,2 0.1,0.2 0.2,0.6 0.2,0.8 0,0.2 -0.4,0.5 -0.6,0.6 -0.1,0.1 -0.6,0.5 -0.6,0.6 0,0.1 0.2,0.4 0.3,0.6 0.1,0.2 0.2,0.5 0.2,0.6 0.4,1.3 0.4,3.1 -0.1,4.2 -0.2,0.4 -0.8,1 -1.1,1.2 -0.8,0.6 -2.4,0.7 -3.4,0.3 -0.3,-0.1 -0.5,-0.2 -0.8,-0.3 -0.7,-0.4 -1.3,-0.6 -1.5,-1.4 -0.5,-0.2 -0.6,-0.8 -0.6,-1.5 0,-0.1 0.1,-0.3 0.1,-0.4 0,-0.1 -0.1,-0.2 -0.1,-0.2 -0.2,-0.5 0,-1.3 0.2,-1.7 0.2,-0.2 0.4,-0.4 0.8,-0.5 0,-0.2 0.1,-0.4 0.2,-0.6 0.1,-0.1 0.3,-0.4 0.2,-0.5 0,-0.1 -0.4,-0.3 -0.5,-0.3 -0.4,-0.2 -0.7,-0.4 -1.1,-0.7 -0.2,-0.2 -0.6,-0.2 -0.6,-0.6 0,-0.3 0.2,-0.6 0.3,-0.9 0.1,-0.3 0.2,-0.6 0.3,-0.9 0,-0.1 0,-0.2 0.1,-0.3 0.1,0 0.2,0 0.3,0 -0.1,0.7 -0.3,1.5 -0.6,2.1 0.5,0.3 1.2,0.8 1.9,1.1 z m 1.6,-0.8 c -0.2,0 -0.9,0.3 -0.8,0.5 0.2,-0.1 0.5,-0.1 0.8,-0.1 0.1,-0.2 0,-0.3 0,-0.4 z m 1.9,-0.7 C 7.5,239.4 7.3,239.1 7,239 c -0.1,-0.1 -0.5,-0.2 -0.7,-0.2 -0.1,0 -0.1,0.1 -0.1,0.2 -0.1,0.2 -0.2,0.5 -0.2,0.7 0,0.3 0,0.9 0.3,0.8 0.3,-0.1 0.6,-0.2 0.9,-0.3 0.1,-0.1 0.2,-0.2 0.4,-0.2 0,0 0,-0.1 0,-0.1 -0.1,-0.1 -0.3,-0.1 -0.4,-0.1 0.2,0 0.3,-0.1 0.5,-0.1 0,-0.1 0,-0.1 0,-0.2 z m 0.2,0.1 c 0,0.2 -0.1,0.2 -0.1,0.4 0.5,0.4 0.6,-0.5 0.1,-0.4 z m 0.2,0.7 c -0.3,0 -0.5,0 -0.8,0.2 0,0 0,0 0,0 0.4,-0.2 0.8,0.1 1.2,0.1 -0.1,-0.1 -0.2,-0.2 -0.4,-0.3 z m 1.2,0.3 c 0.1,-0.1 0.2,-0.5 0.2,-0.7 0,-0.2 0,-0.4 -0.1,-0.4 -0.4,0 -0.7,0.1 -1,0.1 0,0.1 0,0.2 0,0.3 0.1,0.1 0.2,0.1 0.3,0.1 -0.1,0.1 -0.3,0.1 -0.4,0 0,0.1 0,0.1 -0.1,0.2 0.4,0.1 0.8,0.6 1.1,0.4 z m -3.9,7.5 c 0,0 0.1,0 0,0 0.1,-0.1 0,-0.1 -0.1,-0.2 -0.1,-0.1 -0.3,-0.2 -0.4,-0.3 -0.1,-0.1 -0.3,-0.5 -0.5,-0.6 -0.1,0 -0.2,0 -0.3,0 -0.2,0 -0.3,-0.1 -0.6,-0.1 0.4,0.6 1.3,1 1.9,1.2 z m -2.1,-1.8 c 0.3,0.3 0.6,0.5 1.1,0.5 0.2,-0.6 -0.2,-1.3 0,-1.9 0,-0.2 0.2,-0.5 0,-0.5 0,0.6 -0.7,0.9 -1.2,0.6 -0.1,0.4 -0.1,1 0.1,1.3 z m 0.8,-4 c 0,0.1 -0.1,0.3 0,0.3 0,0.2 0.3,0.2 0.2,0.5 -0.2,0 -0.3,-0.2 -0.5,-0.2 -0.5,-0.1 -0.9,0.7 -0.9,1.2 0,0.4 0.3,0.8 0.8,0.7 0.3,0 0.4,-0.4 0.5,-0.7 0.2,0 0.4,0 0.5,0.1 0,0.3 -0.2,0.6 -0.2,0.9 0,0.6 0.3,1.1 0.1,1.7 0.3,0.6 1.1,1.1 1.6,1.4 0.7,0.4 1.9,0.1 2.5,-0.3 0.4,-0.2 0.7,-0.6 1,-1 C 9.3,247 9,246.8 9,246.5 c 0.3,0.3 0.9,0 1,-0.3 0.2,-0.3 0.2,-0.8 0.2,-1.2 0.1,-1.1 -0.2,-2.3 -0.8,-3.1 -0.2,-0.2 -0.3,-0.5 -0.5,-0.6 -0.5,-0.4 -1.3,-0.7 -2,-0.5 -0.9,0.3 -1.3,0.9 -1.8,1.6 0,-0.4 0.3,-0.7 0.5,-1 0.2,-0.2 0.5,-0.5 0.8,-0.6 -0.2,0.1 -0.6,0.1 -0.7,-0.1 -0.6,0 -1.1,0.1 -1.4,0.5 0.1,0.2 -0.1,0.7 -0.2,1.1 z"
   id="path3807" />
        <path
   id="path132"
   class="st4"
   d="m 6.5,242.8 c 0,0 0.2,0.1 0.4,0 0,0 -0.3,0 -0.2,-0.5 H 6.6 c 0,0 -0.1,0.4 -0.1,0.5" />
        <path
   id="path134"
   class="st12"
   d="m 8.5,239 c 0,-0.1 -0.1,-0.1 -0.1,-0.1 -0.1,0 -0.1,0.1 -0.1,0.1 0,0 0.1,0.1 0.1,0.1 0,0 0.1,0 0.1,-0.1" />
        <path
   id="path136"
   class="st12"
   d="m 8.6,238.4 c 0,-0.1 -0.1,-0.1 -0.1,-0.1 -0.1,0 -0.1,0.1 -0.1,0.1 0,0.1 0.1,0.1 0.1,0.1 0,0.1 0.1,0 0.1,-0.1" />
	</g>
</g>
</svg>
