<?xml version="1.0" encoding="utf-8"?>
<!-- Generator: Adobe Illustrator 24.0.1, SVG Export Plug-In . SVG Version: 6.00 Build 0)  -->
<svg version="1.1" id="Ebene_1" xmlns="http://www.w3.org/2000/svg" xmlns:xlink="http://www.w3.org/1999/xlink" x="0px" y="0px"
	 viewBox="0 0 40 40" style="enable-background:new 0 0 40 40;" xml:space="preserve">
<style type="text/css">
	.st0{fill-rule:evenodd;clip-rule:evenodd;fill:#D43833;}
	.st1{fill:#E83F3D;}
	.st2{fill:#231F20;}
	.st3{fill-rule:evenodd;clip-rule:evenodd;fill:#F0D6B8;}
	.st4{fill-rule:evenodd;clip-rule:evenodd;fill:#355162;}
	.st5{fill-rule:evenodd;clip-rule:evenodd;fill:#6E6C6E;}
	.st6{fill-rule:evenodd;clip-rule:evenodd;fill:#DDDAD9;}
	.st7{fill-rule:evenodd;clip-rule:evenodd;fill:#F7E5CF;}
	.st8{fill:#F7E5CF;}
	.st9{fill-rule:evenodd;clip-rule:evenodd;fill:#4A738B;}
	.st10{fill-rule:evenodd;clip-rule:evenodd;fill:#FFFFFF;}
	.st11{fill:#FFFFFF;}
	.st12{fill:none;stroke:#D43833;stroke-width:2.5;stroke-miterlimit:5;}
	.st13{fill-rule:evenodd;clip-rule:evenodd;fill:#E83F3D;}
	.st14{fill-rule:evenodd;clip-rule:evenodd;fill:#231F20;}
	.st15{fill-rule:evenodd;clip-rule:evenodd;fill:#82B0C4;}
	.st16{fill-rule:evenodd;clip-rule:evenodd;fill:#1E1A1A;}
</style>
<g id="g10" transform="matrix(1.25,0,0,-1.25,0,312)">
	<g id="g3393">
		<path id="path22" class="st0" d="M25.65,234.08c0-5.68-4.5-10.28-10.05-10.28c-5.55,0-10.05,4.6-10.05,10.28
			c0,5.68,4.5,10.28,10.05,10.28C21.15,244.37,25.65,239.76,25.65,234.08"/>
		<path id="path24" class="st1" d="M5.95,231.54c0,0-0.73,10.72,9.15,11.03l-0.69,1.15l-5.36-1.8l-1.53-1.76l-1.34-2.57l-0.77-2.99
			l0.23-1.99"/>
		<path id="path26" class="st2" d="M8.71,241.1c-1.76-1.8-2.86-4.3-2.86-7.05l0,0c0-2.76,1.09-5.25,2.86-7.05l0,0
			c1.76-1.8,4.2-2.92,6.89-2.92l0,0c2.69,0,5.12,1.11,6.89,2.92l0,0c1.76,1.8,2.86,4.3,2.86,7.05l0,0c0,2.76-1.09,5.25-2.86,7.05
			l0,0c-1.76,1.8-4.2,2.92-6.89,2.92l0,0C12.9,244.02,10.47,242.9,8.71,241.1L8.71,241.1z M8.26,226.56
			c-1.87,1.92-3.03,4.57-3.03,7.49l0,0c0,2.92,1.16,5.57,3.03,7.49l0,0c1.87,1.92,4.47,3.11,7.33,3.11l0,0
			c2.86,0,5.46-1.19,7.33-3.11l0,0c1.87-1.92,3.03-4.57,3.03-7.49l0,0c0-2.92-1.16-5.57-3.03-7.49l0,0
			c-1.87-1.92-4.47-3.11-7.33-3.11l0,0C12.73,223.45,10.14,224.64,8.26,226.56L8.26,226.56"/>
		<path id="path28" class="st3" d="M19.82,234.03l-1.53-0.23l-2.07-0.23l-1.34-0.04l-1.3,0.04l-1,0.31l-0.88,0.96l-0.69,1.95
			l-0.15,0.42l-0.92,0.31l-0.54,0.88l-0.38,1.26l0.42,1.11l1,0.34l0.8-0.38l0.38-0.84l0.46,0.08l0.15,0.19l-0.15,0.88l-0.04,1.11
			l0.23,1.53l-0.01,0.88l0.7,1.12l1.23,0.88l2.14,0.92l2.37-0.34l2.07-1.49l0.96-1.53l0.61-1.11l0.15-2.76l-0.46-2.37l-0.84-2.11
			l-0.8-1.11"/>
		<path id="path30" class="st4" d="M18.52,227.4l-5.48-0.23v-0.92l0.46-3.22l-0.23-0.27l-3.83,1.3l-0.27,0.46l-0.38,4.33l-0.88,2.6
			l-0.19,0.61l3.06,2.11l0.96,0.38l0.84-1.03l0.73-0.65l0.84-0.27l0.38-0.11L15,230.5l0.34-0.42l0.88,0.31l-0.61-1.19l3.33-1.57
			L18.52,227.4"/>
		<path id="path32" class="st5" d="M9.45,240.77l1,0.34l0.8-0.38l0.38-0.84l0.46,0.08l0.11,0.46l-0.23,0.88l0.23,2.11l-0.19,1.15
			l0.69,0.8l1.49,1.19l-0.42,0.57l-2.11-1.03l-0.88-0.69l-0.5-1.07l-0.77-1.03l-0.23-1.23L9.45,240.77"/>
		<path id="path34" class="st6" d="M11.02,244.37c0,0,0.57,1.42,2.87,2.11c2.3,0.69,0.11,0.5,0.11,0.5l-2.49-0.96l-0.96-0.96
			l-0.42-0.77L11.02,244.37"/>
		<path id="path36" class="st6" d="M9.87,241.04c0,0-0.8,2.68,2.26,3.06l-0.11,0.46l-2.11-0.5l-0.61-1.99l0.15-1.3L9.87,241.04"/>
		<path id="path38" class="st7" d="M11.09,237.47l0.5,0.49c0,0,0.23-0.03,0.26-0.29c0.04-0.27,0.15-2.68,1.8-3.98
			c0.15-0.12-1.23,0.19-1.23,0.19l-1.23,1.91"/>
		<path id="path40" class="st7" d="M18.14,238.2c0,0,0.09,1.16,0.4,1.07c0.31-0.09,0.31-0.4,0.31-0.4S18.1,238.38,18.14,238.2"/>
		<path id="path42" class="st8" d="M21.32,242.45c0,0-0.63-0.13-0.69-0.69c-0.06-0.56,0.69-0.11,0.8-0.08"/>
		<path id="path44" class="st8" d="M16.68,242.41c0,0-0.84-0.11-0.84-0.65c0-0.54,0.96-0.5,1.23-0.27"/>
		<path id="path46" class="st7" d="M11.48,239.93c0,0-1.46,0.88-1.61,0.04c-0.15-0.84-0.5-1.46,0.23-2.34l-0.5,0.15l-0.46,1.19
			l-0.15,1.15l0.88,0.92l1-0.08l0.57-0.46L11.48,239.93"/>
		<path id="path48" class="st7" d="M12.17,242.34c0,0,0.65,3.37,3.94,4.02c2.71,0.54,4.14-0.11,4.67-0.73c0,0-2.41,2.87-4.71,1.99
			c-2.3-0.88-3.98-2.49-3.94-3.52C12.19,242.34,12.17,242.34,12.17,242.34"/>
		<path id="path50" class="st7" d="M21.05,245.25c0,0-1.11,0.04-1.15-0.96c0,0,0-0.15,0.08-0.31c0,0,0.88,1,1.42,0.46"/>
		<path id="path52" class="st7" d="M16.19,243.88c0,0-0.19,1.53-1.49,0.64c-0.84-0.57-0.77-1.38-0.61-1.53
			c0.15-0.15,0.11-0.46,0.23-0.25c0.12,0.21,0.08,0.9,0.5,1.09C15.23,244.02,15.92,244.24,16.19,243.88"/>
		<path id="path54" class="st9" d="M12.59,233.53l-3.6-1.61c0,0,1.49-5.94,0.73-7.77l-0.54,0.19l-0.04,2.26l-1,4.29l-0.42,1.19
			l3.75,2.53L12.59,233.53"/>
		<path id="path56" class="st9" d="M12.96,230.25l0.51-0.62v-2.3h-0.61c0,0-0.08,1.61-0.08,1.8c0,0.19,0.08,0.88,0.08,0.88"/>
		<path id="path58" class="st9" d="M12.97,226.98l-1.72-0.08l0.5-0.34l1.23-0.19"/>
		<path id="path60" class="st4" d="M18.87,227.36l1.42,0.04l0.34-3.52l-1.46-0.19L18.87,227.36"/>
		<path id="path62" class="st4" d="M19.25,227.36l2.14,0.11c0,0,0.88,2.22,0.88,2.34s0.77,3.22,0.77,3.22l-1.72,1.8l-0.34,0.31
			l-0.92-0.92v-3.56L19.25,227.36"/>
		<path id="path64" class="st9" d="M20.21,227.63l-1.34-0.27l0.19-1.07c0.5-0.23,1.34,0.38,1.34,0.38"/>
		<path id="path66" class="st9" d="M20.25,234.33l2.68-1.99l0.08,0.92l-2.03,1.88L20.25,234.33"/>
		<path id="path68" class="st10" d="M14.3,219.82l-0.79,3.22l-0.39,2.37l-0.07,1.76l3.59,0.19l2.23,0l-0.2-4.02l0.34-3.1l-0.04-0.57
			l-2.91-0.23L14.3,219.82"/>
		<path id="path70" class="st6" d="M18.37,227.4c0,0-0.19-3.98,0.38-6.82c0,0-1.15-0.73-2.83-0.92l3.22,0.11l0.38,0.23l-0.46,6.28
			l-0.11,1.34"/>
		<path id="path72" class="st10" d="M20.69,224.18l1.49,0.42l2.83,0.15l0.42,1.3l-0.77,2.26l-0.88,0.11l-1.23-0.38l-1.18-0.57
			l-0.62,0.11l-0.49-0.19"/>
		<path id="path74" class="st6" d="M20.67,224.95c0,0,1,0.46,1.15,0.42l-0.42,2.11l0.5,0.19c0,0,0.34-1.99,0.34-2.22
			c0,0,2.14-0.11,2.34-0.11c0,0,0.46,0.88,0.34,1.8l0.42-1.23l0.04-0.69l-0.61-0.92l-0.69-0.15l-1.15,0.04l-0.38,0.5l-1.34-0.19
			l-0.42-0.15"/>
		<path id="path76" class="st11" d="M19.16,227.67l-0.84,2.14l-0.88,1.26c0,0,0.19,0.54,0.46,0.54s0.88,0,0.88,0l0.84-0.31
			l-0.08-1.42L19.16,227.67"/>
		<path id="path78" class="st6" d="M19.33,228.4c0,0-1.07,2.07-1.07,2.37c0,0,0.19,0.46,0.46,0.34c0.27-0.11,0.84-0.42,0.84-0.42
			v0.73l-1.3,0.27l-0.88-0.11l1.49-3.52l0.31-0.04"/>
		<path id="path80" class="st11" d="M14.64,233.45l-1.06,0.12l-1,0.31v-0.34l0.49-0.54l1.53-0.69"/>
		<path id="path82" class="st6" d="M12.93,233.34c0,0,1.19-0.5,1.57-0.38l0.04-0.46l-1.07,0.23l-0.65,0.46L12.93,233.34"/>
		<path id="path84" class="st0" d="M20.69,231.48c-0.65,0.02-1.24,0.1-1.75,0.24c0.03,0.21-0.03,0.42,0.02,0.57
			c0.14,0.1,0.38,0.1,0.6,0.13c-0.19,0.09-0.45,0.13-0.67,0.08c-0.01,0.15-0.07,0.24-0.11,0.35c0.37,0.13,1.23,0.99,1.71,0.7
			c0.23-0.13,0.33-0.9,0.35-1.28C20.86,231.96,20.82,231.65,20.69,231.48"/>
		<path id="path86" class="st12" d="M20.69,231.48c-0.65,0.02-1.24,0.1-1.75,0.24c0.03,0.21-0.03,0.42,0.02,0.57
			c0.14,0.1,0.38,0.1,0.6,0.13c-0.19,0.09-0.45,0.13-0.67,0.08c-0.01,0.15-0.07,0.24-0.11,0.35c0.37,0.13,1.23,0.99,1.71,0.7
			c0.23-0.13,0.33-0.9,0.35-1.28C20.86,231.96,20.82,231.65,20.69,231.48z"/>
		<path id="path88" class="st0" d="M17.58,232.55c0-0.05,0-0.1-0.01-0.15c-0.2-0.13-0.53-0.13-0.75-0.24
			c0.33-0.01,0.59-0.09,0.81-0.2c0-0.12-0.01-0.25-0.01-0.37c-0.37-0.25-0.71-0.63-1.15-0.87c-0.21-0.11-0.93-0.4-1.15-0.35
			c-0.12,0.03-0.14,0.18-0.19,0.33c-0.11,0.31-0.35,0.81-0.37,1.28c-0.03,0.59-0.09,1.59,0.55,1.47c0.52-0.1,1.12-0.34,1.52-0.55
			C17.07,232.74,17.21,232.57,17.58,232.55"/>
		<path id="path90" class="st12" d="M17.58,232.55c0-0.05,0-0.1-0.01-0.15c-0.2-0.13-0.53-0.13-0.75-0.24
			c0.33-0.01,0.59-0.09,0.81-0.2c0-0.12-0.01-0.25-0.01-0.37c-0.37-0.25-0.71-0.63-1.15-0.87c-0.21-0.11-0.93-0.4-1.15-0.35
			c-0.12,0.03-0.14,0.18-0.19,0.33c-0.11,0.31-0.35,0.81-0.37,1.28c-0.03,0.59-0.09,1.59,0.55,1.47c0.52-0.1,1.12-0.34,1.52-0.55
			C17.07,232.74,17.21,232.57,17.58,232.55z"/>
		<path id="path92" class="st0" d="M17.95,231.84c-0.06,0.32-0.12,0.42-0.1,0.7C18.72,233.11,18.88,231.55,17.95,231.84"/>
		<path id="path94" class="st12" d="M17.95,231.84c-0.06,0.32-0.12,0.42-0.1,0.7C18.72,233.11,18.88,231.55,17.95,231.84z"/>
		<path id="path96" class="st13" d="M19.2,231.58c0,0-0.27,0.38-0.08,0.5c0.19,0.11,0.38,0,0.5,0.19c0.11,0.19,0,0.31,0.04,0.54
			c0.04,0.23,0.23,0.27,0.42,0.31c0.19,0.04,0.73,0.11,0.8-0.08l-0.23,0.69l-0.46,0.15l-1.46-0.84l-0.08-0.42v-0.84"/>
		<path id="path98" class="st13" d="M15.18,230.31c-0.05,0.6-0.09,1.19-0.15,1.79c-0.08,0.89,0.21,0.74,0.99,0.74
			c0.12,0,0.73-0.14,0.77-0.23c0.21-0.43-0.35-0.33,0.24-0.65c0.5-0.27,1.38,0.16,1.18,0.77c-0.11,0.13-0.59,0.04-0.76,0.13
			c-0.3,0.16-0.6,0.31-0.9,0.47c-0.38,0.2-1.26,0.49-1.67,0.21c-1.03-0.7,0.06-2.45,0.43-3.18"/>
		<path id="path100" class="st14" d="M16.19,243.88c-1.04,0.24-1.56-0.44-1.88-1.14c-0.28,0.07-0.17,0.45-0.1,0.65
			c0.19,0.51,0.94,1.2,1.56,1.11C16.03,244.45,16.39,244.21,16.19,243.88"/>
		<path id="path102" class="st14" d="M21.27,242.69c0.02,0,0.03,0,0.05,0c0.24-0.49,0.44-1.01,0.74-1.44
			c-0.2-0.46-1.51-0.88-1.49-0.04c0.28,0.12,0.77,0.03,1.02,0.18C21.45,241.79,21.24,242.13,21.27,242.69"/>
		<path id="path104" class="st14" d="M16.72,242.68c0.22-0.41,0.3-0.84,0.61-1.15c0.14-0.14,0.42-0.31,0.28-0.7
			c-0.03-0.09-0.27-0.3-0.4-0.34c-0.5-0.15-1.66-0.03-1.26,0.59c0.41-0.02,0.96-0.27,1.27,0.03
			C16.99,241.49,16.57,242.24,16.72,242.68"/>
		<path id="path106" class="st14" d="M21.09,238.51c-0.75-0.48-1.58-1-2.81-0.88c-0.26,0.23-0.36,0.74-0.11,1.07
			c0.13-0.23,0.05-0.65,0.42-0.71c0.7-0.12,1.51,0.43,2.01,0.62c0.31,0.52-0.03,0.72-0.31,1.05c-0.57,0.69-1.34,1.55-1.31,2.58
			c0.23,0.17,0.25-0.26,0.28-0.33c0.3-0.7,1.05-1.6,1.6-2.19c0.13-0.15,0.36-0.29,0.38-0.39C21.31,239.04,21.06,238.7,21.09,238.51"
			/>
		<path id="path108" class="st14" d="M11.21,239.02c-0.23,0.13-0.29,0.72-0.57,0.74c-0.39,0.02-0.32-0.77-0.32-1.23
			c-0.27,0.25-0.32,1-0.12,1.39c-0.23,0.11-0.33-0.12-0.45-0.21C9.91,240.89,11.47,240.26,11.21,239.02"/>
		<path id="path110" class="st14" d="M21.56,238.02c-0.35-0.66-0.84-1.39-1.86-1.42c-0.02,0.21-0.04,0.54,0,0.67
			C20.48,237.35,20.96,237.75,21.56,238.02"/>
		<path id="path112" class="st14" d="M16.66,237.59c0.65-0.34,1.85-0.38,2.74-0.35c0.05-0.19,0.05-0.43,0.05-0.67
			C18.31,236.51,16.96,236.79,16.66,237.59"/>
		<path id="path114" class="st14" d="M16.54,236.95c0.45-1.13,2-1,3.31-0.97c-0.06-0.15-0.18-0.32-0.34-0.38
			c-0.42-0.17-1.57-0.3-2.16,0.01c-0.37,0.2-0.61,0.64-0.81,0.9C16.45,236.63,15.96,236.95,16.54,236.95"/>
		<path id="path116" class="st15" d="M21.03,230.7c-0.53-0.91-1.04-1.84-1.66-2.64c0.26,0.77,0.38,2.07,0.42,3.06
			C20.33,231.38,20.81,231.06,21.03,230.7"/>
		<path id="path118" class="st14" d="M23.88,227.44c-0.59-0.12-1.01-0.69-1.59-0.66C22.61,227.23,23.17,227.42,23.88,227.44"/>
		<path id="path120" class="st14" d="M24.14,226.52c-0.48-0.05-1.05-0.13-1.54-0.09C22.83,226.78,23.73,226.66,24.14,226.52"/>
		<path id="path122" class="st14" d="M24.31,225.72c-0.54-0.01-1.22,0-1.73,0.04C22.88,226.09,23.96,225.88,24.31,225.72"/>
		<path id="path124" class="st6" d="M20.01,223.53c0.08-0.68,0.35-1.37,0.31-2.12c-0.3-0.1-0.47-0.19-0.87-0.19
			c-0.03,0.63-0.11,1.6-0.09,2.21C19.56,223.41,19.85,223.57,20.01,223.53"/>
		<path id="path126" class="st3" d="M19.13,233.58c-0.27-0.18-0.5-0.4-0.77-0.59c-0.58-0.03-0.9,0.04-1.32,0.37
			c0.01,0.03,0.05,0.01,0.05,0.05C17.72,233.13,18.51,233.52,19.13,233.58"/>
		<path id="path128" class="st15" d="M15.87,229.34c0.17,0.74,0.84,1.12,1.45,1.53c0.63-0.8,1.01-1.82,1.43-2.81
			C17.76,228.36,16.74,228.85,15.87,229.34"/>
		<path id="path130" class="st14" d="M19.36,223.43c-0.03-0.61,0.06-1.58,0.09-2.21c0.4,0,0.57,0.09,0.87,0.19
			c0.03,0.75-0.24,1.44-0.31,2.12C19.85,223.57,19.56,223.41,19.36,223.43z M13.1,226.87c0.27-2.44,0.65-4.49,1.35-6.65
			c1.56-0.47,3.45-0.52,4.83-0.09c-0.25,1.22-0.14,2.7-0.29,4c-0.11,0.98-0.05,1.96-0.21,2.96
			C17.11,227.44,14.74,227.18,13.1,226.87z M19.18,227.08c-0.01-1.05,0.05-2.08,0.13-3.13c0.4,0.06,0.68,0.1,1.05,0.18
			c-0.12,1.01-0.11,2.15-0.35,3.04C19.72,227.17,19.47,227.18,19.18,227.08z M21.22,227.25c-0.19,0.04-0.41,0-0.6,0
			c0.09-0.85,0.29-1.8,0.37-2.69c0.29-0.01,0.44,0.13,0.68,0.17C21.68,225.51,21.6,226.6,21.22,227.25L21.22,227.25z M24.31,224.43
			c0.6,0.15,0.97,0.88,0.81,1.63c-0.11,0.51-0.31,1.46-0.53,1.78c-0.16,0.24-0.59,0.55-0.93,0.33c-0.56-0.36-1.54-0.46-1.94-0.89
			c0.2-0.68,0.27-1.61,0.35-2.47c0.7-0.04,1.55,0.19,2.13-0.06c-0.4-0.13-0.93-0.13-1.28-0.32
			C23.21,224.29,23.87,224.32,24.31,224.43L24.31,224.43z M18.75,228.06c-0.42,0.99-0.8,2.01-1.43,2.81
			c-0.61-0.41-1.28-0.79-1.45-1.53C16.74,228.85,17.76,228.36,18.75,228.06z M19.78,231.12c-0.04-0.99-0.15-2.28-0.42-3.06
			c0.63,0.8,1.13,1.73,1.66,2.64C20.81,231.06,20.33,231.38,19.78,231.12z M18.61,231.54c-0.24,0.03-0.44-0.27-0.75-0.14
			c-0.07-0.08-0.14-0.16-0.21-0.24c0.68-0.82,0.99-1.99,1.52-2.96c0.28,0.93,0.25,1.95,0.31,2.96
			C19.1,231.13,18.88,231.51,18.61,231.54z M17.86,232.54c-0.03-0.28,0.04-0.37,0.1-0.7C18.88,231.55,18.72,233.11,17.86,232.54z
			 M16.83,232.87c-0.4,0.22-1,0.46-1.52,0.55c-0.64,0.12-0.58-0.87-0.55-1.47c0.02-0.47,0.27-0.97,0.37-1.28
			c0.05-0.15,0.06-0.3,0.19-0.33c0.22-0.05,0.95,0.24,1.15,0.35c0.44,0.24,0.78,0.62,1.15,0.87c0,0.12,0.01,0.25,0.01,0.37
			c-0.22,0.11-0.48,0.19-0.81,0.2c0.22,0.11,0.55,0.11,0.75,0.24c0,0.05,0,0.1,0.01,0.15C17.21,232.57,17.07,232.74,16.83,232.87z
			 M13.01,233.57c-0.33-0.34,0.93-0.8,1.33-0.82c0,0.21,0.12,0.41,0.1,0.57C13.96,233.4,13.33,233.34,13.01,233.57z M17.1,233.41
			c0-0.03-0.04-0.02-0.05-0.05c0.43-0.33,0.74-0.4,1.32-0.37c0.26,0.19,0.49,0.41,0.77,0.59C18.51,233.52,17.72,233.13,17.1,233.41z
			 M20.84,232.27c-0.02,0.37-0.12,1.14-0.35,1.28c-0.49,0.28-1.35-0.57-1.71-0.7c0.04-0.11,0.11-0.21,0.11-0.35
			c0.22,0.05,0.48,0.02,0.67-0.08c-0.22-0.02-0.46-0.02-0.6-0.13c-0.05-0.15,0.01-0.36-0.02-0.57c0.51-0.14,1.1-0.22,1.75-0.24
			C20.82,231.65,20.86,231.96,20.84,232.27z M12.45,233.24c-0.1,0.07-0.81,0.99-0.91,0.95c-1.27-0.5-2.47-1.37-3.53-2.19
			c1.02-2.18,1.43-4.85,1.5-7.42c1.16-0.54,2.18-1.33,3.76-1.41c-0.18,1.29-0.35,2.45-0.45,3.66c-0.4,0.17-0.97-0.01-1.34,0.05
			c0,0.45,0.57,0.2,0.61,0.5c0.04,0.23-0.31,0.24-0.2,0.6c0.29-0.11,0.44-0.34,0.75-0.43c0.28,0.62,0,1.71,0.04,2.23
			c0.01,0.1,0.05,0.54,0.27,0.46c0.19-0.07-0.01-1.17,0.01-1.66c0.02-0.45-0.05-0.89,0.13-1.17c1.53,0.21,3.08,0.34,4.73,0.39
			c-0.36,0.16-0.79,0.3-1.27,0.57c-0.26,0.14-1.06,0.45-1.14,0.69c-0.12,0.39,0.31,0.59,0.38,0.93c-0.77-0.42-0.92,0.4-1.1,0.99
			c-0.17,0.53-0.26,0.92-0.3,1.23C13.73,232.51,13.02,232.84,12.45,233.24L12.45,233.24z M20.17,234.08
			c1.06,0.51,1.25-1.92,0.84-2.71c0.06-0.23,0.29-0.32,0.38-0.53c-0.59-1.06-1.25-2.05-1.86-3.1c0.45,0.28,1.09,0.05,1.62,0.26
			c0.19,0.08,0.33,0.52,0.48,0.87c0.4,0.97,0.83,2.2,1.01,3.13c0.04,0.21,0.16,0.67,0.13,0.86c-0.05,0.34-0.5,0.59-0.74,0.8
			c-0.43,0.39-0.7,0.73-1.15,1.09C20.71,234.48,20.32,234.3,20.17,234.08L20.17,234.08z M10.02,243.5c-0.51-0.56-0.4-1.6-0.34-2.34
			c0.91,0.58,2.13-0.05,2.12-1.02c0.44,0.01,0.16,0.55,0.08,0.89c-0.26,1.12,0.43,2.34,0.03,3.37
			C11.13,244.33,10.49,244.01,10.02,243.5L10.02,243.5z M13.64,246.73c-1.15-0.32-2.61-1.16-3.08-2.19
			c0.36,0.05,0.62,0.24,0.98,0.26c0.14,0.01,0.31-0.06,0.47-0.02c0.31,0.08,0.57,0.78,0.81,1.03c0.23,0.25,0.5,0.36,0.69,0.59
			c0.12,0.06,0.3,0.05,0.31,0.24C13.76,246.71,13.71,246.75,13.64,246.73z M19.61,246.43c-1.19,0.67-3.2,1.18-4.47,0.54
			c-1.02-0.51-2.4-1.35-2.87-2.42c0.44-1.03-0.13-1.97-0.17-3.02c-0.02-0.56,0.26-1.04,0.28-1.65c-0.15-0.25-0.61-0.28-0.93-0.26
			c-0.11,0.54-0.29,1.14-0.85,1.2c-0.78,0.09-1.35-0.56-1.39-1.24c-0.04-0.79,0.61-2.11,1.53-2.02c0.36,0.04,0.44,0.39,0.83,0.39
			c0.21-0.42-0.33-0.55-0.38-0.85c-0.01-0.08,0.04-0.38,0.08-0.52c0.17-0.69,0.54-1.59,0.91-2.12c0.47-0.67,1.39-0.77,2.37-0.84
			c0.18,0.38,0.83,0.35,1.25,0.25c-0.51,0.2-0.98,0.69-1.37,1.12c-0.45,0.49-0.9,1.03-0.93,1.67c0.85-1.18,1.55-2.21,3.09-2.72
			c1.17-0.39,2.53,0.18,3.43,0.81c0.37,0.26,0.59,0.68,0.86,1.06c0.99,1.42,1.45,3.46,1.35,5.43c-0.04,0.81-0.04,1.62-0.31,2.17
			c-0.28,0.57-1.25,1.08-1.81,0.57c-0.1,0.56,0.47,0.9,1.14,0.7C20.8,245.3,20.29,246.04,19.61,246.43L19.61,246.43z M21.82,228.09
			c0.93,0.46,2.67,1.24,3.25,0c0.21-0.46,0.47-1.23,0.58-1.71c0.16-0.67-0.17-2.07-0.86-2.3c-0.61-0.2-1.31-0.19-2.05-0.04
			c-0.09,0.07-0.18,0.2-0.25,0.33c-0.52,0.02-1.01-0.03-1.42-0.24c0.04-0.39-0.22-0.45-0.47-0.53c-0.18-0.72,0.36-1.66,0.23-2.31
			c-0.09-0.47-0.67-0.54-1.09-0.63c-0.01-0.26,0.02-0.48,0.05-0.7c-0.1-0.36-0.53-0.56-0.94-0.61c-1.35-0.16-3.4-0.24-4.7,0.23
			c-0.36,0.89-0.65,1.97-0.95,2.99c-1.27-0.14-2.29,0.55-3.26,0.99c-0.33,0.16-0.8,0.24-0.92,0.51c-0.12,0.26-0.07,0.75-0.1,1.22
			c-0.08,1.19-0.14,2.34-0.46,3.56c-0.14,0.55-0.39,1.03-0.56,1.56c-0.16,0.49-0.44,1.09-0.51,1.58c-0.11,0.72,0.57,0.76,1.01,1.08
			c0.67,0.48,1.2,0.75,1.93,1.19c0.22,0.13,0.87,0.46,0.94,0.61c0.15,0.3-0.25,0.72-0.36,0.96c-0.17,0.37-0.26,0.69-0.28,1.05
			c-0.61,0.1-1.07,0.46-1.35,0.87c-0.46,0.68-0.78,1.94-0.38,2.89c0.03,0.08,0.19,0.22,0.21,0.34c0.05,0.23-0.09,0.53-0.09,0.77
			c-0.04,1.24,0.21,2.31,1.05,2.69c0.34,1.35,1.55,1.8,2.7,2.47c0.43,0.25,0.9,0.41,1.39,0.59c1.75,0.64,4.43,0.52,5.88-0.57
			c0.61-0.47,1.6-1.45,1.95-2.16c0.93-1.88,0.86-5.01,0.21-7.3c-0.09-0.31-0.21-0.76-0.39-1.13c-0.12-0.26-0.51-0.77-0.46-1
			c0.05-0.23,0.87-0.86,1.05-1.03c0.32-0.31,0.92-0.72,0.97-1.1c0.05-0.41-0.18-0.98-0.3-1.38
			C22.66,230.51,22.27,229.28,21.82,228.09"/>
		<path id="path132" class="st7" d="M15.62,237.3c0.05,0.07,0.33,0.17,0.72-0.02c0,0-0.46-0.08-0.42-0.84l-0.19,0.04
			C15.73,236.48,15.53,237.17,15.62,237.3"/>
		<path id="path134" class="st16" d="M18.98,230.71c0-0.12-0.09-0.21-0.21-0.21c-0.12,0-0.21,0.09-0.21,0.21
			c0,0.12,0.09,0.21,0.21,0.21C18.89,230.93,18.98,230.83,18.98,230.71"/>
		<path id="path136" class="st16" d="M19.19,229.74c0-0.12-0.09-0.21-0.21-0.21c-0.12,0-0.21,0.09-0.21,0.21s0.09,0.21,0.21,0.21
			C19.1,229.95,19.19,229.85,19.19,229.74"/>
	</g>
</g>
</svg>
